<svg xmlns="http://www.w3.org/2000/svg" viewBox="0 11.899999618530273 200.14999389648438 49.19999694824219" data-asc="0.94" width="200.14999389648438" height="49.19999694824219"><defs/><g fill="#000000"><g transform="translate(0, 0)"><path d="M10.40 53.20Q8.70 53.20 7.03 52.80Q5.35 52.40 3.90 51.50Q2.10 50.40 1.05 48.52Q0 46.65 0 44.60Q0 44.25 0.15 44.20Q0.30 44.30 0.40 44.63Q0.50 44.95 0.70 44.95Q0.95 44.95 1.10 44.58Q1.25 44.20 1.30 44.10Q1.55 43.55 1.70 43.25Q1.85 42.95 2.40 42.60Q2.60 42.50 3.08 42.30Q3.55 42.10 4.03 41.92Q4.50 41.75 4.65 41.75Q4.70 41.75 4.70 41.80Q4.70 41.90 4.13 42.15Q3.55 42.40 2.98 42.92Q2.40 43.45 2.40 44.40Q2.40 44.55 2.50 44.95Q3.40 48.45 6 50.02Q8.60 51.60 12 51.60Q15.10 51.60 18.15 50.55Q21.20 49.50 23.95 47.77Q26.70 46.05 28.85 43.95Q30.90 42 32.88 39.98Q34.85 37.95 36.70 35.85L27.75 35.40Q27.45 35.40 27.15 35.38Q26.85 35.35 26.55 35.35Q25.40 35.35 23.85 35.63Q22.30 35.90 21.55 36.90Q21.20 37.40 21 38.05Q20.80 38.70 20.60 39.30Q20.30 39.20 20.05 38.92Q19.80 38.65 19.80 38.30Q19.80 37.75 20.38 37.20Q20.95 36.65 21.65 36.23Q22.35 35.80 22.80 35.55Q24.40 34.70 26.10 34.15Q27.80 33.60 29.65 33.60Q31.85 33.60 34.02 33.73Q36.20 33.85 38.35 33.95Q41.75 29.95 44.88 25.80Q48 21.65 51.65 17.90Q48.90 16.75 45.63 15.77Q42.35 14.80 38.98 14.23Q35.60 13.65 32.60 13.65Q30.80 13.65 28.73 13.98Q26.65 14.30 24.85 15.17Q23.05 16.05 21.95 17.70Q21.05 18.95 21.05 20.60Q21.05 22.70 22.30 24.13Q23.55 25.55 25.40 26.25Q27.25 26.95 29.10 26.95Q29.85 26.95 30.50 26.63Q31.15 26.30 31.65 25.80Q31.80 25.85 31.80 26Q31.80 26.05 31.78 26.13Q31.75 26.20 31.75 26.30Q31.10 27.25 30 27.57Q28.90 27.90 27.80 27.90Q25.70 27.90 23.73 27.10Q21.75 26.30 20.48 24.70Q19.20 23.10 19.20 20.75Q19.20 19.75 19.48 18.82Q19.75 17.90 20.25 17.05Q21.45 15.05 23.45 13.95Q25.45 12.85 27.75 12.38Q30.05 11.90 32.20 11.90Q35.55 11.90 39.10 12.65Q42.65 13.40 46.13 14.57Q49.60 15.75 52.65 17Q53.15 16.60 53.90 16.13Q54.65 15.65 55.30 15.65Q56 15.65 56.40 16.07Q56.80 16.50 56.80 17.20Q56.80 17.40 56.75 17.63Q56.70 17.85 56.65 18.10Q56.50 18.95 56.25 19.20Q56 19.45 55.73 19.57Q55.45 19.70 55.05 20.35Q54.30 21.60 53.33 24.02Q52.35 26.45 51.35 29.43Q50.35 32.40 49.50 35.42Q48.65 38.45 48.13 41Q47.60 43.55 47.60 45.10Q47.60 45.75 47.73 46.50Q47.85 47.25 48.28 47.77Q48.70 48.30 49.55 48.30Q50.25 48.30 50.75 47.92Q51.25 47.55 51.70 47.05Q51.85 46.95 51.85 47.20L51.85 47.30Q51.85 48.05 50.98 48.63Q50.10 49.20 49.03 49.50Q47.95 49.80 47.30 49.80Q45.60 49.80 45.20 48.73Q44.80 47.65 44.80 46.20Q44.80 44.35 45.20 42.15Q45.60 39.95 46.23 37.77Q46.85 35.60 47.45 33.80L45.35 35.80Q44.35 35.90 43.35 35.92Q42.35 35.95 41.35 35.95Q40.55 35.95 39.77 35.95Q39 35.95 38.20 35.90Q35.70 38.70 33.10 41.50Q30.50 44.30 27.40 46.45Q25.05 48.10 22.23 49.65Q19.40 51.20 16.40 52.20Q13.40 53.20 10.40 53.20M43.80 34.20Q44.75 34.20 45.65 34.13Q46.55 34.05 47.45 33.80Q48.85 29.70 50.58 25.75Q52.30 21.80 53.60 17.70L39.80 34.05Q40.80 34.10 41.80 34.15Q42.80 34.20 43.80 34.20ZM51.60 47.65Q51.55 47.65 51.55 47.60Q51.55 47.40 51.73 47.20Q51.90 47 51.95 46.90Q52.30 46.35 52.78 45.02Q53.25 43.70 53.73 42.02Q54.20 40.35 54.63 38.63Q55.05 36.90 55.40 35.45Q55.75 34 55.90 33.25Q56.00 32.85 56.10 32.20Q56.20 31.55 56.40 30.90Q56.60 30.25 56.85 30.05Q57.35 29.65 58.23 29.35Q59.10 29.05 60.05 28.88Q61.00 28.70 61.60 28.70Q61.70 28.70 61.85 28.80Q62.00 28.90 62.05 29L62.05 29.15Q62.05 29.30 61.95 29.27Q61.85 29.25 61.75 29.25Q60.65 29.25 59.80 30.47Q58.95 31.70 58.35 33.48Q57.75 35.25 57.35 36.90Q56.95 38.55 56.75 39.40Q58.35 36.65 60.43 34.13Q62.50 31.60 65.30 30.05Q65.65 29.85 66.10 29.63Q66.55 29.40 66.90 29.40Q67.55 29.40 67.70 29.97Q67.85 30.55 67.85 31.05Q67.85 31.70 67.40 32.95Q66.95 34.20 66.38 35.42Q65.80 36.65 65.50 37.35Q65.20 38.15 64.80 39.40Q64.40 40.65 64.10 41.90Q63.80 43.15 63.80 44Q63.80 44.35 63.90 44.80Q64 45.25 64.45 45.25Q64.70 45.25 64.88 45.15Q65.05 45.05 65.25 44.95Q66.40 44.30 67.48 43.17Q68.55 42.05 69.45 40.73Q70.35 39.40 70.95 38.30Q71 38.35 71 38.50Q71 38.80 70.65 39.38Q70.30 39.95 69.85 40.60Q69.40 41.25 69.03 41.75Q68.65 42.25 68.65 42.35Q68.60 42.70 68.50 42.92Q68.40 43.15 68.25 43.50Q67.65 44.10 66.53 44.98Q65.40 45.85 64.23 46.52Q63.05 47.20 62.15 47.20Q61.35 47.20 61.08 46.58Q60.80 45.95 60.80 45.25Q60.80 43.90 61.35 42.02Q61.90 40.15 62.65 38.27Q63.40 36.40 63.90 35.10Q64.05 34.70 64.38 33.85Q64.70 33 64.70 32.65Q64.70 32.40 64.63 32.10Q64.55 31.80 64.15 31.80Q63.65 31.80 62.88 32.45Q62.10 33.10 61.70 33.50Q59.55 35.90 58.00 38.83Q56.45 41.75 55.40 44.85Q55.25 45.25 55.23 45.42Q55.20 45.60 54.80 45.85Q54.65 45.95 53.88 46.40Q53.10 46.85 52.38 47.25Q51.65 47.65 51.60 47.65ZM70.00 47.10Q69.20 47.10 68.98 46.48Q68.75 45.85 68.75 45.20Q68.75 42.85 69.65 40.15Q70.55 37.45 72.00 34.98Q73.45 32.50 75.15 30.90Q76.95 29.25 79.40 29.25Q80.40 29.25 81.38 29.47Q82.35 29.70 83.30 30.10Q84.15 29.50 85.15 29.05Q86.15 28.60 87.20 28.60Q87.45 28.60 87.60 28.90L87.60 29.05Q87.60 29.20 87.48 29.18Q87.35 29.15 87.25 29.15Q86.45 29.15 85.50 30.38Q84.55 31.60 83.60 33.50Q82.65 35.40 81.88 37.50Q81.10 39.60 80.63 41.35Q80.15 43.10 80.15 44Q80.15 44.35 80.28 44.80Q80.40 45.25 80.85 45.25Q81.10 45.25 81.28 45.15Q81.45 45.05 81.65 44.95Q82.75 44.30 83.83 43.17Q84.90 42.05 85.83 40.73Q86.75 39.40 87.35 38.30Q87.40 38.35 87.40 38.50Q87.40 38.80 87.05 39.38Q86.70 39.95 86.25 40.60Q85.80 41.25 85.43 41.75Q85.05 42.25 85.05 42.35Q85.00 42.70 84.90 42.92Q84.80 43.15 84.60 43.50Q83.95 44.15 82.95 45Q81.95 45.85 80.88 46.48Q79.80 47.10 78.80 47.10Q77.25 47.10 77.25 45.45Q77.25 44.45 77.68 43.13Q78.10 41.80 78.68 40.48Q79.25 39.15 79.70 38.25Q79.70 38.20 79.70 38.10Q79.70 38 79.65 38Q79.60 38 79.50 38.10Q78.90 38.90 77.75 40.40Q76.60 41.90 75.23 43.42Q73.85 44.95 72.45 46.02Q71.05 47.10 70.00 47.10M72.20 44.95Q72.75 44.95 73.58 44.23Q74.40 43.50 75.33 42.48Q76.25 41.45 76.98 40.50Q77.70 39.55 78.00 39.10Q78.60 38.20 79.38 36.85Q80.15 35.50 80.73 34.05Q81.30 32.60 81.30 31.60Q81.30 30.05 79.75 30.05Q78.85 30.05 77.85 30.85Q76.85 31.65 76.25 32.30Q75.60 33.10 74.78 34.60Q73.95 36.10 73.25 37.85Q72.55 39.60 72.08 41.20Q71.60 42.80 71.60 43.85Q71.60 44.15 71.70 44.55Q71.80 44.95 72.20 44.95ZM86.50 46.95Q85.00 46.95 85.00 45.30Q85.00 44.15 85.60 42.10Q86.20 40.05 87.03 37.73Q87.85 35.40 88.68 33.33Q89.50 31.25 89.95 30.05Q90.60 28.30 91.55 26Q92.50 23.70 93.75 21.32Q95.00 18.95 96.58 16.95Q98.15 14.95 100.08 13.70Q102.00 12.45 104.30 12.45Q106.80 12.45 107.63 13.35Q108.45 14.25 108.45 15.20Q108.45 15.60 108.18 15.70Q107.90 15.80 107.90 15.45Q107.90 14.40 107.08 13.73Q106.25 13.05 105.05 13.05Q103.00 13.05 101.15 14.60Q99.30 16.15 97.70 18.60Q96.10 21.05 94.80 23.77Q93.50 26.50 92.53 28.93Q91.55 31.35 91.00 32.80Q90.65 33.75 90.05 35.27Q89.45 36.80 88.88 38.48Q88.30 40.15 87.90 41.67Q87.50 43.20 87.50 44.15Q87.50 44.45 87.60 44.85Q87.70 45.25 88.10 45.25Q88.35 45.25 88.53 45.15Q88.70 45.05 88.90 44.95Q90.05 44.30 91.13 43.17Q92.20 42.05 93.10 40.73Q94.00 39.40 94.60 38.30Q94.65 38.35 94.65 38.50Q94.65 38.90 94.08 39.75Q93.50 40.60 92.93 41.38Q92.35 42.15 92.30 42.35Q92.25 42.70 92.15 42.92Q92.05 43.15 91.90 43.50Q91.30 44.10 90.38 44.90Q89.45 45.70 88.45 46.33Q87.45 46.95 86.50 46.95ZM88.35 61.10Q88.10 61.10 87.23 61Q86.35 60.90 85.58 60.67Q84.80 60.45 84.80 60.15Q84.80 60.15 84.80 60.10Q84.80 60.05 84.85 60.05Q84.90 60.05 84.90 60.08Q84.90 60.10 84.90 60.10L85.25 60.15Q85.05 59.70 85.05 59Q85.05 58.65 85.13 58.13Q85.20 57.60 85.35 57.25Q85.40 57.15 85.70 56.65Q86.00 56.15 86.33 55.70Q86.65 55.25 86.70 55.25L86.70 55.30Q86.70 55.35 86.35 56.02Q86.00 56.70 86.00 57.40Q86.00 58.20 86.58 58.90Q87.15 59.60 88.00 60.02Q88.85 60.45 89.60 60.45Q91.05 60.45 92.40 59.25Q93.75 58.05 95.00 56.10Q96.25 54.15 97.33 51.80Q98.40 49.45 99.25 47.10Q100.10 44.75 100.75 42.75Q101.40 40.75 101.75 39.60Q101.75 39.55 101.78 39.52Q101.80 39.50 101.80 39.45Q101.80 39.30 101.70 39.30Q101.65 39.30 101.55 39.40Q100.00 41.45 98.38 43.42Q96.75 45.40 94.50 46.70Q94.15 46.90 93.70 47.10Q93.25 47.30 92.85 47.30Q91.90 47.30 91.90 45.70Q91.90 44.60 92.58 42.92Q93.25 41.25 94.18 39.30Q95.10 37.35 95.78 35.48Q96.45 33.60 96.45 32.10Q96.45 31.90 96.38 31.65Q96.30 31.40 96.05 31.40Q95.70 31.40 95.10 31.88Q94.50 32.35 93.85 33.05Q93.20 33.75 92.73 34.40Q92.25 35.05 92.10 35.40Q91.90 35.30 91.90 35.15Q91.90 34.70 92.78 33.73Q93.65 32.75 94.85 31.67Q96.05 30.60 97.15 29.85Q98.25 29.10 98.70 29.10Q99.25 29.10 99.43 29.85Q99.60 30.60 99.60 31Q99.60 31.95 99.18 33.38Q98.75 34.80 98.10 36.42Q97.45 38.05 96.83 39.48Q96.20 40.90 95.80 41.85Q95.70 42.20 95.38 42.98Q95.05 43.75 95.05 44.20Q95.05 44.95 95.60 44.95Q96.15 44.95 96.93 44.27Q97.70 43.60 98.05 43.20Q100.20 40.85 101.78 37.90Q103.35 34.95 104.35 31.90Q104.50 31.50 104.53 31.32Q104.55 31.15 104.95 30.90Q105.10 30.80 105.88 30.35Q106.65 29.90 107.40 29.47Q108.15 29.05 108.15 29.05Q108.20 29.05 108.20 29.15Q108.20 29.30 108.05 29.50Q107.90 29.70 107.80 29.80Q107.40 30.45 106.98 31.55Q106.55 32.65 106.18 33.75Q105.80 34.85 105.55 35.60Q104.55 38.60 103.60 41.60Q102.65 44.60 101.60 47.55Q100.85 49.65 99.63 52Q98.40 54.35 96.75 56.42Q95.10 58.50 93.00 59.80Q90.90 61.10 88.35 61.10ZM108.50 47.15Q107.70 47.15 107.40 46.75Q107.10 46.35 107.10 45.60Q107.10 44.30 107.70 42.33Q108.30 40.35 109.20 38.13Q110.10 35.90 110.98 33.88Q111.85 31.85 112.40 30.55Q111.75 30.60 111.10 30.60Q110.45 30.60 109.75 30.65Q109.65 30.55 109.65 30.45Q109.65 30.15 110.05 29.75Q110.45 29.35 110.98 29.07Q111.50 28.80 111.75 28.80L113.15 28.80Q113.65 27.60 114.18 26.40Q114.70 25.20 115.15 24Q115.40 23.35 115.73 22.92Q116.05 22.50 116.65 22.10Q117.50 21.55 118.75 21.20Q120.00 20.85 120.95 20.85Q121.05 20.85 121.18 20.95Q121.30 21.05 121.35 21.10L121.35 21.30Q121.35 21.45 121.23 21.40Q121.10 21.35 121.00 21.35Q120.40 21.35 119.60 22.32Q118.80 23.30 117.95 24.65Q117.10 26 116.48 27.22Q115.85 28.45 115.60 28.90L117.60 28.90Q118.40 28.90 119.20 28.88Q120.00 28.85 120.80 28.75L120.85 28.85Q120.80 28.85 120.80 28.90Q120.80 28.95 120.75 28.95Q120.60 29.10 120.00 29.43Q119.40 29.75 118.80 30Q118.20 30.25 117.95 30.30Q117.15 30.40 116.38 30.45Q115.60 30.50 114.80 30.50Q114.30 31.60 113.50 33.40Q112.70 35.20 111.90 37.23Q111.10 39.25 110.58 41.08Q110.05 42.90 110.05 44.10Q110.05 44.40 110.15 44.80Q110.25 45.20 110.65 45.20Q111.00 45.20 111.35 44.95Q112.45 44.30 113.53 43.17Q114.60 42.05 115.53 40.73Q116.45 39.40 117.00 38.30Q117.10 38.35 117.10 38.50Q117.10 38.80 116.75 39.38Q116.40 39.95 115.95 40.60Q115.50 41.25 115.13 41.75Q114.75 42.25 114.75 42.35Q114.70 42.75 114.58 42.92Q114.45 43.10 114.30 43.50Q113.65 44.10 112.65 44.98Q111.65 45.85 110.55 46.50Q109.45 47.15 108.50 47.15ZM126.25 25.50Q125.85 25.50 125.03 25.17Q124.20 24.85 124.20 24.35Q124.20 24.30 124.23 24.27Q124.25 24.25 124.25 24.20Q124.50 23.70 125.38 23.60Q126.25 23.50 126.70 23.30Q127.70 22.90 128.65 22.65Q129.60 22.40 130.45 21.75Q130.65 21.85 130.65 21.95Q130.65 22.15 130.22 22.50Q129.80 22.85 129.65 23.10Q129.45 23.40 128.78 23.97Q128.10 24.55 127.35 25.02Q126.60 25.50 126.25 25.50M117.80 47.15Q117 47.15 116.70 46.75Q116.40 46.35 116.40 45.60Q116.40 43.95 117.08 41.60Q117.75 39.25 118.60 36.83Q119.45 34.40 119.95 32.50Q120.15 31.80 120.93 31.52Q121.70 31.25 122.25 30.85Q123.05 30.30 123.95 29.93Q124.85 29.55 125.85 29.55Q126.10 29.55 126.18 29.65Q126.25 29.75 126.25 29.80Q126.25 30.10 125.90 30.10Q125.20 30.10 124.45 30.93Q123.70 31.75 122.95 33.05Q122.20 34.35 121.60 35.75Q121 37.15 120.55 38.33Q120.10 39.50 119.95 40.05Q119.70 40.85 119.45 41.92Q119.20 43 119.20 43.90Q119.20 44.25 119.30 44.73Q119.40 45.20 119.90 45.20Q120.25 45.20 120.65 44.95Q121.75 44.30 122.83 43.17Q123.90 42.05 124.83 40.73Q125.75 39.40 126.30 38.30Q126.40 38.35 126.40 38.50Q126.40 38.80 126.05 39.38Q125.70 39.95 125.25 40.60Q124.80 41.25 124.43 41.75Q124.05 42.25 124.05 42.35Q124 42.75 123.90 42.92Q123.80 43.10 123.60 43.50Q123 44.10 122 44.98Q121 45.85 119.90 46.50Q118.80 47.15 117.80 47.15ZM125.70 47Q125.15 47 124.78 46.50Q124.40 46 124.23 45.35Q124.05 44.70 124.05 44.25Q124.05 42.05 124.98 39.52Q125.90 37 127.35 34.67Q128.80 32.35 130.35 30.90Q131.25 30.05 132.43 29.65Q133.60 29.25 134.80 29.25Q135.60 29.25 136.53 29.45Q137.45 29.65 138.10 30.15Q138.10 30.20 138.13 30.22Q138.15 30.25 138.15 30.30Q138.15 30.40 138.10 30.40L138.05 30.40L137.70 30.30Q137.85 30.75 137.85 31.20Q137.85 31.65 137.60 32.52Q137.35 33.40 137 34.20Q136.65 35 136.25 35.25Q136.25 35.25 136.15 35.25Q136 35.25 136 35Q136 34.90 136.10 34.80Q136.20 34.70 136.25 34.60Q136.50 34.05 136.63 33.50Q136.75 32.95 136.75 32.40Q136.75 31.55 136.35 30.80Q135.95 30.05 134.95 30.05Q134.05 30.05 133.05 30.85Q132.05 31.65 131.45 32.30Q130.45 33.45 129.43 35.42Q128.40 37.40 127.70 39.50Q127 41.60 127 43.15Q127 43.85 127.28 44.48Q127.55 45.10 128.40 45.10Q129.65 45.10 131.05 44.23Q132.45 43.35 133.85 42.08Q135.25 40.80 136.43 39.52Q137.60 38.25 138.38 37.38Q139.15 36.50 139.25 36.50Q139.40 36.50 139.40 36.75Q139.40 36.85 139.38 36.95Q139.35 37.05 139.30 37.15Q138.05 38.80 136.63 40.52Q135.20 42.25 133.53 43.73Q131.85 45.20 129.90 46.10Q127.95 47 125.70 47ZM138.05 47.10Q137.25 47.10 137.03 46.48Q136.80 45.85 136.80 45.20Q136.80 42.85 137.70 40.15Q138.60 37.45 140.05 34.98Q141.50 32.50 143.20 30.90Q145 29.25 147.45 29.25Q148.45 29.25 149.42 29.47Q150.40 29.70 151.35 30.10Q152.20 29.50 153.20 29.05Q154.20 28.60 155.25 28.60Q155.50 28.60 155.65 28.90L155.65 29.05Q155.65 29.20 155.53 29.18Q155.40 29.15 155.30 29.15Q154.50 29.15 153.55 30.38Q152.60 31.60 151.65 33.50Q150.70 35.40 149.92 37.50Q149.15 39.60 148.67 41.35Q148.20 43.10 148.20 44Q148.20 44.35 148.32 44.80Q148.45 45.25 148.90 45.25Q149.15 45.25 149.32 45.15Q149.50 45.05 149.70 44.95Q150.80 44.30 151.88 43.17Q152.95 42.05 153.88 40.73Q154.80 39.40 155.40 38.30Q155.45 38.35 155.45 38.50Q155.45 38.80 155.10 39.38Q154.75 39.95 154.30 40.60Q153.85 41.25 153.47 41.75Q153.10 42.25 153.10 42.35Q153.05 42.70 152.95 42.92Q152.85 43.15 152.65 43.50Q152 44.15 151 45Q150 45.85 148.92 46.48Q147.85 47.10 146.85 47.10Q145.30 47.10 145.30 45.45Q145.30 44.45 145.72 43.13Q146.15 41.80 146.72 40.48Q147.30 39.15 147.75 38.25Q147.75 38.20 147.75 38.10Q147.75 38 147.70 38Q147.65 38 147.55 38.10Q146.95 38.90 145.80 40.40Q144.65 41.90 143.28 43.42Q141.90 44.95 140.50 46.02Q139.10 47.10 138.05 47.10M140.25 44.95Q140.80 44.95 141.63 44.23Q142.45 43.50 143.38 42.48Q144.30 41.45 145.03 40.50Q145.75 39.55 146.05 39.10Q146.65 38.20 147.42 36.85Q148.20 35.50 148.78 34.05Q149.35 32.60 149.35 31.60Q149.35 30.05 147.80 30.05Q146.90 30.05 145.90 30.85Q144.90 31.65 144.30 32.30Q143.65 33.10 142.82 34.60Q142 36.10 141.30 37.85Q140.60 39.60 140.13 41.20Q139.65 42.80 139.65 43.85Q139.65 44.15 139.75 44.55Q139.85 44.95 140.25 44.95ZM154.55 46.95Q153.05 46.95 153.05 45.30Q153.05 44.15 153.65 42.10Q154.25 40.05 155.08 37.73Q155.90 35.40 156.72 33.33Q157.55 31.25 158 30.05Q158.65 28.30 159.60 26Q160.55 23.70 161.80 21.32Q163.05 18.95 164.63 16.95Q166.20 14.95 168.13 13.70Q170.05 12.45 172.35 12.45Q174.85 12.45 175.68 13.35Q176.50 14.25 176.50 15.20Q176.50 15.60 176.23 15.70Q175.95 15.80 175.95 15.45Q175.95 14.40 175.13 13.73Q174.30 13.05 173.10 13.05Q171.05 13.05 169.20 14.60Q167.35 16.15 165.75 18.60Q164.15 21.05 162.85 23.77Q161.55 26.50 160.58 28.93Q159.60 31.35 159.05 32.80Q158.70 33.75 158.10 35.27Q157.50 36.80 156.93 38.48Q156.35 40.15 155.95 41.67Q155.55 43.20 155.55 44.15Q155.55 44.45 155.65 44.85Q155.75 45.25 156.15 45.25Q156.40 45.25 156.58 45.15Q156.75 45.05 156.95 44.95Q158.10 44.30 159.18 43.17Q160.25 42.05 161.15 40.73Q162.05 39.40 162.65 38.30Q162.70 38.35 162.70 38.50Q162.70 38.90 162.13 39.75Q161.55 40.60 160.97 41.38Q160.40 42.15 160.35 42.35Q160.30 42.70 160.20 42.92Q160.10 43.15 159.95 43.50Q159.35 44.10 158.43 44.90Q157.50 45.70 156.50 46.33Q155.50 46.95 154.55 46.95ZM169.10 50.95Q166.45 50.95 164.10 49.88Q161.75 48.80 160.33 46.77Q158.90 44.75 158.90 41.90Q158.90 41.30 159.08 40.42Q159.25 39.55 159.58 38.70Q159.90 37.85 160.30 37.45Q160.50 37.25 160.90 36.92Q161.30 36.60 161.55 36.60Q161.90 36.60 161.90 36.85Q161.90 37.10 161.95 37.20Q162.15 37.40 162.43 37.45Q162.70 37.50 163 37.50Q163.35 37.50 163.95 37.75Q164.55 38 165.05 38.40Q165.55 38.80 165.55 39.35Q165.55 39.45 165.45 39.45Q165.05 39.45 164.48 38.80Q163.90 38.15 162.95 38.15Q161.65 38.15 160.68 39.30Q159.70 40.45 159.70 41.75Q159.70 43.45 160.73 44.90Q161.75 46.35 163.35 47.40Q164.95 48.45 166.73 49.02Q168.50 49.60 170 49.60Q170.55 49.60 171.10 49.55Q171.65 49.50 172.15 49.35Q173.15 49.05 174.10 48.67Q175.05 48.30 176 47.80Q178.90 46.15 180.93 43.48Q182.95 40.80 184.35 37.58Q185.75 34.35 186.78 31.02Q187.80 27.70 188.60 24.70Q188.85 23.75 189.28 22.20Q189.70 20.65 190.25 19.15Q190.80 17.65 191.30 16.95Q191.65 16.40 192.60 16.17Q193.55 15.95 194.10 15.80Q193.15 15.75 192.23 15.70Q191.30 15.65 190.35 15.65Q188.65 15.65 186.38 15.88Q184.10 16.10 181.78 16.67Q179.45 17.25 177.58 18.32Q175.70 19.40 174.70 21.15Q174 22.40 174 23.70Q174 25.70 175.18 27.07Q176.35 28.45 178.13 29.18Q179.90 29.90 181.65 29.90Q182.50 29.90 183.40 29.75Q184.15 29.65 184.68 29.20Q185.20 28.75 185.75 28.25Q185.75 28.20 185.78 28.22Q185.80 28.25 185.80 28.25Q185.90 28.25 185.90 28.55Q185.90 28.65 185.85 28.70Q185.45 29.70 184.50 30.22Q183.55 30.75 182.45 30.93Q181.35 31.10 180.40 31.10Q178.35 31.10 176.55 30.27Q174.75 29.45 173.65 27.88Q172.55 26.30 172.55 24.15Q172.55 21.95 173.80 20Q175.35 17.60 177.95 16.32Q180.55 15.05 183.53 14.55Q186.50 14.05 189.10 14.05Q191.20 14.05 193.23 14.32Q195.25 14.60 197.25 14.60Q198.35 14.60 198.90 14.30Q199.45 14 199.68 13.73Q199.90 13.45 200.05 13.45Q200.15 13.45 200.15 13.70Q200.15 14.45 199.53 15.02Q198.90 15.60 198.20 15.75Q197.65 15.90 197 15.88Q196.35 15.85 195.80 15.85Q195.25 15.85 194.78 16.17Q194.30 16.50 194.05 16.95Q192.95 19.10 192.13 21.35Q191.30 23.60 190.60 25.85Q189.25 30.25 188.05 33.98Q186.85 37.70 185.13 40.75Q183.40 43.80 180.48 46.20Q177.55 48.60 172.75 50.35Q171.90 50.70 170.95 50.83Q170 50.95 169.10 50.95Z"/></g></g></svg>